<?xml version="1.0" encoding="UTF-8"?>
<svg id="Camada_1" data-name="Camada 1" xmlns="http://www.w3.org/2000/svg" version="1.1" viewBox="0 0 32 32">
  <defs>
    <style>
      .cls-1, .cls-2 {
        fill: #000;
      }

      .cls-1, .cls-2, .cls-3, .cls-4 {
        stroke-width: 0px;
      }

      .cls-2 {
        display: none;
      }

      .cls-3 {
        fill: #fff;
      }

      .cls-4 {
        fill: #ca1517;
      }
    </style>
  </defs>
  <rect class="cls-2" width="32" height="32"/>
  <circle class="cls-3" cx="16" cy="16" r="16"/>
  <g>
    <path class="cls-1" d="M32,21.2h0c0,0,0,0,0-.1-.2,0-.4.2-.6.2-.6.2-1.1.6-1.7.7,0,0-.2,0-.3,0-.5.3-1,.2-1.6.2-.2,0-.5,0-.7.1-.4.2-.8.5-1,.9,0,0,0,.1,0,.2,0,.6,0,1.2,0,1.8,0,.8,0,1.6,0,2.4,0,.6-.2,1.1-.5,1.5-.1.2-.4.4-.5.6-.1.1-.3.2-.4.3-.6.5-1.3.8-2.1.9-.5,0-1.1,0-1.6,0-.4,0-.7.1-1,.2-.2,0-.2,0-.3-.1,0-.1,0-.3,0-.4,0-.4,0-.8-.4-1.1-.3-.2-.7-.3-1-.3,0,0-.2.1-.3.2,0,.2,0,.4-.1.6,0,0,0,.1,0,.2,0,0,0,0,0,0,0,0,0,0,0,0-.5-.8-1.1-1.5-1.5-2.3-.1-.2-.3-.4-.5-.6,0,0-.2-.2-.2-.3-.3-.6-.6-1.3-1-1.9-.4-.6-.6-1.3-1.1-1.9-.2-.3-.4-.6-.6-1-.2-.3-.3-.5-.5-.8-.1-.2-.2-.4-.3-.6,0-.2,0-.3-.2-.5-.2-.4-.5-.8-.7-1.2,0-.1-.1-.2-.2-.3-.2-.6-.5-1.1-.9-1.5-.4-.4-.8-.9-1.2-1.3,0,0-.2-.2-.3-.2-.2,0-.4,0-.5.2,0,0,0,0,0,.2-.2,0-.3-.1-.5-.2-.3-.1-.5-.2-.8-.2-.1,0-.2,0-.2-.2,0,0,0-.2,0-.2-.3-.8-.5-1.6-.5-2.5,0-.2,0-.5-.2-.7,0,0,0-.1,0-.2,0,0,.1,0,.2,0,.4,0,.7.2,1.1.4.2,0,.5.1.7.2.1,0,.2,0,.3.2.1.2.3.3.5.3.7.2,1.4.5,2,.9.4.2.7.4,1.1.7.7.5,1.4,1.1,2,1.7.9.8,1.8,1.6,2.7,2.4.5.4,1,.7,1.6,1,.5.2.9.4,1.4.6.4.1.9.2,1.3.3.2,0,.5,0,.6-.2.4-.4.5-.8.6-1.4,0-.5.1-1,.2-1.5,0,0,0,0,0,0,0-.4.2-.7.3-1,.2-.4.3-.8.5-1.2.5-1,1.1-1.8,2-2.5.3-.3.7-.5,1-.8.2-.1.4-.2.7-.3.5-.2.9-.3,1.4-.5.8-.3,1.7-.3,2.6-.2.2,0,.3,0,.5,0,0,0,0-.2-.1-.3-.1,0-.2,0-.3,0-.9-.2-1.8-.1-2.7.2-.4.2-.9.3-1.3.4-.5.2-1,.4-1.5.8-.8.7-1.6,1.4-2.1,2.3-.3.4-.5.9-.7,1.4,0,.1,0,.3-.1.4-.2.5-.4,1-.4,1.5,0,.5-.2,1-.2,1.5,0,.5-.2.8-.5,1.1,0,0-.2.1-.3.1-.4,0-.9-.2-1.3-.3-.5-.2-.9-.4-1.4-.6-.5-.2-1-.5-1.4-.8-1-.8-1.9-1.7-2.8-2.5-.5-.4-.9-.9-1.4-1.3-.4-.3-.9-.6-1.3-.9-.8-.5-1.6-.9-2.5-1.1-.1,0-.2-.1-.3-.2-.1-.2-.3-.2-.4-.3-.2,0-.5,0-.7-.2-.4-.2-.7-.4-1.2-.4-.1,0-.3,0-.4,0,0,.1-.1.4,0,.5.2.2.2.4.2.6-.1.8.2,1.5.3,2.3,0,0,0,0,0,0,.2.1.2.3.2.5,0,.2.1.3.3.2.3,0,.5,0,.7.1.2,0,.4.2.5.2.2,0,.4,0,.4-.2,0,0,0-.2,0-.2,0,0,.1,0,.2,0,0,0,0,0,.1.1.4.5.9,1,1.3,1.4.3.3.5.6.7,1.1,0,.2.2.5.3.7.2.4.5.8.7,1.2,0,.1,0,.3.2.4,0,.2.1.4.2.5.5.7,1,1.4,1.4,2.1.3.5.5,1,.8,1.5.3.6.6,1.3.9,1.9,0,.1.2.3.3.4.2.3.4.5.6.8.5.7.9,1.5,1.4,2.2,0,0,.2.2.3.2,0,0,.1-.2.2-.3,0-.2,0-.4.1-.5,0,0,0-.2.2-.2.4,0,.9.3,1,.6,0,.2,0,.4,0,.6,0,.3,0,.6.3.7,0,0,.2,0,.2,0,.3-.2.7-.3,1.1-.3.5,0,1.1,0,1.6,0,.8,0,1.6-.4,2.3-.9,0,0,.2-.2.3-.2.6-.3.9-.9,1.1-1.5,0-.2.1-.4.2-.6,0-.7,0-1.4,0-2.1,0-.3,0-.5,0-.8,0-.3,0-.7,0-1,0-.1,0-.3.1-.4,0-.1,0-.2,0-.4.1-.5.7-.9,1.2-.9.2,0,.3,0,.5,0,.4,0,.9,0,1.2-.2.1,0,.3,0,.4-.1.2,0,.5-.1.7-.2.5-.2.9-.4,1.4-.6,0,0,0,0,0-.1Z"/>
    <path class="cls-1" d="M32.2,19.9c0-.1,0-.3,0-.4,0,0,0-.1,0-.2,0,0,0,0,0,0,0-.8,0-1.6,0-2.3,0,0,0,0,0,0,0-.2-.1-.5,0-.8-.3-.2-.7-.4-1.1-.5-.2,0-.4,0-.6,0-.4,0-.8-.2-1.1-.5,0,0,0-.1,0-.2,0-.4.3-.7.7-.7,0,0,0,0,0,0,.8,0,1.4.2,2,.5,0,0,0,0,0-.1,0,0,0,0,0,0,0,0,0-.1,0-.2,0,0,0,0,0-.1,0,0,0-.1,0-.2h0c0,0,0,0,0-.1,0,0,0-.2,0-.3h0c0-.2,0-.2,0-.2,0,0,0-.1,0-.2,0-.1,0-.2,0-.3,0,0,0,0,0,0,0-.1,0-.2,0-.3,0,0,0-.1,0-.2,0,0,0-.1,0-.2v-.3s0,0,0,0c0,0-.1-.1-.1-.2,0,0,0-.1,0-.2,0,0,0-.2-.1-.3,0,0,0,0-.1-.1-.2,0-.3,0-.5,0-.9-.2-1.7-.1-2.6.2-.5.2-.9.3-1.4.5-.2,0-.5.2-.7.3-.4.2-.7.5-1,.8-.9.7-1.5,1.5-2,2.5-.2.4-.3.8-.5,1.2-.1.3-.3.6-.3,1,0,0,0,0,0,0,0,.5-.2,1-.2,1.5,0,.5-.2,1-.6,1.4-.2.2-.4.3-.6.2-.5,0-.9-.2-1.3-.3-.5-.2-.9-.4-1.4-.6-.6-.2-1.2-.6-1.6-1-.9-.8-1.8-1.6-2.7-2.4-.7-.6-1.3-1.2-2-1.7-.3-.2-.7-.5-1.1-.7-.6-.4-1.3-.7-2-.9-.2,0-.3-.2-.5-.3,0,0-.2-.1-.3-.2-.2,0-.5-.1-.7-.2-.3-.1-.7-.4-1.1-.4,0,0-.1,0-.2,0,0,0,0,.2,0,.2.1.2.2.4.2.7,0,.9.1,1.7.5,2.5,0,0,0,.2,0,.2,0,.1,0,.2.2.2.3,0,.5,0,.8.2.1,0,.3.1.5.2,0,0,0-.1,0-.2,0-.2.3-.3.5-.2.1,0,.2.1.3.2.4.4.8.9,1.2,1.3.4.4.7.9.9,1.5,0,.1,0,.2.2.3.2.4.5.8.7,1.2,0,.1.1.3.2.5,0,.2.1.4.3.6.2.2.4.5.5.8.2.3.4.7.6,1,.5.6.7,1.3,1.1,1.9.3.6.6,1.2,1,1.9,0,.1.2.2.2.3.2.2.4.4.5.6.4.8,1,1.5,1.5,2.3,0,0,0,0,0,0,0,0,0,0,0,0,0,0,0-.1,0-.2,0-.2,0-.4.1-.6,0,0,.2-.2.3-.2.4,0,.7,0,1,.3.3.3.4.7.4,1.1,0,.1,0,.3,0,.4,0,.1,0,.2.3.1.3-.1.7-.2,1-.2.5,0,1.1,0,1.6,0,.8,0,1.5-.4,2.1-.9.1-.1.3-.2.4-.3.2-.2.4-.3.5-.6.2-.5.5-1,.5-1.5,0-.8,0-1.6,0-2.4,0-.6,0-1.2,0-1.8,0,0,0-.1,0-.2.2-.5.5-.8,1-.9.2,0,.5-.1.7-.1.5,0,1.1,0,1.6-.2,0,0,.2,0,.3,0,.6,0,1.1-.4,1.7-.7.2,0,.4-.2.6-.2,0,0,0-.2,0-.3,0-.2,0-.3,0-.5,0,0,0-.1,0-.2,0,0,0-.2,0-.2ZM7.1,14.3c-.4,0-.6-.2-.7-.6,0-.4.3-.7.7-.7.4,0,.6.3.6.7,0,.4-.3.7-.6.7ZM23.7,18.3c.2-.4.5-.8.8-1.1.2-.2.4-.5.7-.4.4,0,.5.1.4.4,0,0,0,.1,0,.2-.3.5-.5,1.1-1,1.4-.2.1-.4.1-.6,0-.2-.1-.3-.3-.2-.6ZM22.4,26.3c-.1,0-.3.1-.4.2-.2,0-.5,0-.7.1-1.9-.2-3.6-.8-4.7-2.4-.2-.3-.3-.8-.5-1.2,0-.1,0-.2,0-.3,0,0,0-.2,0-.2,0,0,.2,0,.3,0,.2.1.4.3.5.5.3.5.6,1,1,1.4.5.5,1.1.9,1.8,1.1.8.2,1.6.3,2.4.3.1,0,.2,0,.3,0,0,0,.2.2.2.2,0,0,0,.2-.2.3ZM23.4,24.1c-.4.2-.8.3-1.3.4,0,0,0,0-.1,0,0,0,0,0,0,0,.1,0,.2,0,.4,0,.2,0,.4.1.6.2,0,0,.2.2.1.3,0,0-.1.2-.2.2-.4.1-.8,0-1.1,0-.3-.1-.6-.2-.9-.4-.2-.1-.5-.4-.7-.6-.1-.1,0-.4,0-.5.2,0,.3,0,.5,0,.9,0,1.7,0,2.5,0,.1,0,.3,0,.3.1,0,.2,0,.2-.2.3ZM24.6,23.5c-.2,0-.4.1-.5.1-.8,0-1.6,0-2.3-.2,0,0,0,0-.1,0,0,0-.2-.2-.2-.3,0,0,0-.2.2-.2.4-.1.7-.3,1.1-.4.4-.1.9-.2,1.3-.5,0,0,.1,0,.2,0,.1,0,.3,0,.4,0,.1.1.1.3,0,.4-.1.2-.3.3-.5.5.1,0,.2,0,.3,0,.2,0,.4,0,.4.2,0,.2,0,.3-.2.4ZM26.3,20.9c-.4.3-.9.6-1.4.7-.8.2-1.6.5-2.5.4-.3,0-.7,0-1,0-.8,0-1.6-.3-2.3-.6-.2,0-.4-.3-.6-.5-.1,0,0-.2,0-.3.1-.2.3-.2.6-.2.1,0,.3,0,.4.1.8.4,1.6.5,2.5.4.4,0,.9,0,1.3-.2.5,0,.9-.3,1.3-.4.5-.1,1-.3,1.5-.4.2,0,.4,0,.5.2,0,.2,0,.4-.2.5ZM26.9,14.4c-.2,0-.3.2-.4.3-.4.4-.7.8-1.1,1.2,0,0-.2.2-.2.3-.2.3-.6.2-.9.2,0,0-.1-.1-.2-.2,0-.5.3-.9.7-1.3.5-.5,1.2-1,1.9-1.3.2-.1.5,0,.6.2,0,.2,0,.4-.3.5ZM30.2,21.8c-.2.1-.3,0-.5,0-.4-.4-.7-.7-1.1-1.1,0,0-.2-.2-.2-.3,0-.1,0-.2,0-.3,0-.1.2-.2.3-.2.2,0,.3.1.4.2.5.3.9.8,1.2,1.3.1.2,0,.4,0,.5ZM31.6,18.4c-.2.2-.4.2-.6.1-.1,0-.3-.2-.4-.3-.2-.1-.3-.3-.4-.4-.3-.3-.7-.3-1.1-.3-.3,0-.6.1-.9-.2-.3-.4-.2-.5.2-.8.2-.1.4-.1.6-.2.8.2,1.6.2,2.2.8.2.2.3.4.4.6.1.2,0,.4-.1.7Z"/>
    <path class="cls-1" d="M21.3,22.1c-.8,0-1.6-.3-2.3-.6-.2,0-.4-.3-.6-.5-.1,0,0-.2,0-.3.1-.2.3-.2.6-.2.1,0,.3,0,.4.1.8.4,1.6.5,2.5.4.4,0,.9,0,1.3-.2.4,0,.9-.3,1.3-.4.5-.1,1-.3,1.5-.4.2,0,.4,0,.5.2,0,.2,0,.4-.2.5-.4.3-.9.6-1.4.7-.8.2-1.6.5-2.5.4-.3,0-.7,0-1,0ZM18.6,20.9h0c.2.2.3.4.5.4.6.2,1.3.5,1.9.5.4,0,.9,0,1.3,0,.9,0,1.7-.2,2.5-.5.5-.1.9-.3,1.2-.6,0,0,0-.1,0-.2,0,0-.1,0-.2,0-.5.1-1,.3-1.4.4-.5.1-.9.3-1.4.4-.4,0-.9.1-1.3.2-.8,0-1.7,0-2.4-.4-.2,0-.3-.1-.5-.2-.1,0-.2,0-.4,0Z"/>
    <path class="cls-1" d="M21.4,26.6c-1.9-.2-3.6-.8-4.7-2.4-.2-.3-.3-.8-.5-1.2,0-.1,0-.2,0-.3,0,0,0-.2,0-.2,0,0,.2,0,.3,0,.2.1.4.3.5.5.3.5.6,1,1,1.4.5.5,1.1.9,1.8,1.1.8.2,1.6.3,2.4.3.1,0,.2,0,.3,0,0,0,.2.2.2.2,0,0,0,.2-.2.3-.1,0-.3.1-.4.2-.2,0-.5,0-.7.1ZM16.4,22.7s0,0,0,0c0,.4.2.9.4,1.2.3.4.6.7.9,1,1,.8,2.2,1.2,3.4,1.3.4,0,.7,0,1.1-.2,0,0,0,0,.2-.1-.2,0-.3,0-.4,0-.8,0-1.6-.2-2.4-.3-.7-.2-1.3-.5-1.8-1.1-.4-.4-.7-.9-1-1.4,0-.1-.2-.3-.3-.4Z"/>
    <path class="cls-1" d="M22,24.6c.1,0,.2,0,.4,0,.2,0,.4.1.6.2,0,0,.2.2.1.3,0,0-.1.2-.2.2-.4.1-.8,0-1.1,0-.3-.1-.6-.2-.9-.4-.2-.1-.5-.4-.7-.6-.1-.1,0-.4,0-.5.2,0,.3,0,.5,0,.9,0,1.7,0,2.5,0,.1,0,.3,0,.3.1,0,.2,0,.2-.2.3-.4.2-.8.3-1.3.4,0,0,0,0-.1,0,0,0,0,0,0,0ZM22.9,24.1c-.5,0-1.1,0-1.6,0-.3,0-.6,0-.8,0-.2,0-.3,0-.1.3,0,0,.1.1.2.2.6.4,1.2.7,1.9.7,0,0,.2,0,.3,0,0,0,0,0,0,0-.2,0-.3,0-.5-.1-.2,0-.4-.1-.6-.2,0,0-.2-.2-.2-.2,0,0,.1-.2.2-.2.3,0,.6-.1.9-.2,0,0,.2,0,.3-.1Z"/>
    <path class="cls-1" d="M24.2,22.9c.1,0,.2,0,.3,0,.2,0,.4,0,.4.2,0,.2,0,.3-.2.4-.2,0-.4.1-.5.1-.8,0-1.6,0-2.3-.2,0,0,0,0-.1,0,0,0-.2-.2-.2-.3,0,0,0-.2.2-.2.4-.1.7-.3,1.1-.4.4-.1.9-.2,1.3-.5,0,0,.1,0,.2,0,.1,0,.3,0,.4,0,.1.1.1.3,0,.4-.1.2-.3.3-.5.5ZM24.6,23.2s0,0,0,0c0,0-.2,0-.2,0-.3,0-.6,0-.9,0,0,0-.2-.1-.2-.2,0,0,0-.2.2-.2.2,0,.3,0,.5-.2.2,0,.3-.2.4-.3,0,0,0-.1,0-.2,0,0-.2,0-.2,0-.5.2-.9.4-1.4.5-.2,0-.4.1-.7.2-.1,0-.3.1-.4.2,0,0,0,0,0,0,0,0,0,0,.1,0,.8.1,1.6.2,2.3.1.1,0,.2,0,.4-.1Z"/>
    <path class="cls-1" d="M29.1,16.4c.8.2,1.6.2,2.2.8.2.2.3.4.4.6.1.2,0,.4-.1.7-.2.2-.4.2-.6.1-.1,0-.3-.2-.4-.3-.2-.1-.3-.3-.4-.4-.3-.3-.7-.3-1.1-.3-.3,0-.6.1-.9-.2-.3-.4-.2-.5.2-.8.2-.1.4-.1.6-.2ZM29.2,16.7c-.1,0-.2,0-.3,0,0,0-.1,0-.2,0-.2,0-.3.2-.2.3,0,.2.2.3.4.3.1,0,.2,0,.3,0,.4,0,.8,0,1.2.3.2.2.3.3.5.5,0,0,.2.1.3.2.1,0,.2,0,.3,0,0-.1.2-.2,0-.4-.1-.2-.2-.3-.4-.5-.6-.5-1.3-.5-2-.7Z"/>
    <path class="cls-1" d="M24,16.2c0-.5.3-.9.7-1.3.5-.5,1.2-1,1.9-1.3.2-.1.5,0,.6.2,0,.2,0,.4-.3.5-.2,0-.3.2-.4.3-.4.4-.7.8-1.1,1.2,0,0-.2.2-.2.3-.2.3-.6.2-.9.2,0,0-.1-.1-.2-.2ZM24.3,16.1c.4.2.6,0,.8-.3.3-.4.6-.8,1-1.1.2-.2.5-.3.7-.5,0,0,0-.1.1-.2,0,0-.1,0-.2,0,0,0,0,0,0,0-.6.3-1.2.6-1.6,1.1-.2.2-.4.5-.6.8,0,0,0,.2,0,.3Z"/>
    <path class="cls-1" d="M25.1,16.7c.4,0,.5.1.4.4,0,0,0,.1,0,.2-.3.5-.5,1.1-1,1.4-.2.1-.4.1-.6,0-.2-.1-.3-.3-.2-.6.2-.4.5-.8.8-1.1.2-.2.4-.5.7-.4ZM25.3,17.1s-.1,0-.2-.1c-.2,0-.3,0-.4.2-.3.4-.5.8-.8,1.2,0,0,0,.2,0,.2,0,0,.2,0,.2,0,.2,0,.4-.2.5-.3.2-.3.4-.7.7-1,0,0,0-.1,0-.2Z"/>
    <path class="cls-1" d="M28.6,19.8c.2,0,.3.1.4.2.5.3.9.8,1.2,1.3.1.2,0,.4,0,.5-.2.1-.3,0-.5,0-.4-.4-.7-.7-1.1-1.1,0,0-.2-.2-.2-.3,0-.1,0-.2,0-.3,0-.1.2-.2.3-.2ZM28.6,20.1c0,0,0,.1,0,.2,0,0,.1.2.2.3.3.3.6.6.9.9,0,0,.2.2.3.2,0,0,0-.3,0-.3-.3-.3-.6-.6-.9-1,0,0-.2-.1-.4-.2Z"/>
    <path class="cls-1" d="M7.7,13.6c0,.4-.3.7-.6.7-.4,0-.6-.2-.7-.6,0-.4.3-.7.7-.7.4,0,.6.3.6.7ZM7.5,13.6c0-.2-.1-.4-.3-.4-.2,0-.4.3-.4.5,0,.2.2.4.4.4.2,0,.4-.2.4-.4Z"/>
  </g>
  <g>
    <path class="cls-4" d="M5.7,10.4c.1-1.1.4-2.1,1.3-2.9.2-.1.3-.3.5-.4.2-.2.5-.3.8-.3.3,0,.5.1.4.4,0,.3-.2.6-.3.8,0,.2-.2.4-.2.7,0,.2.1.4.4.2.2-.1.4-.2.6-.4.7-.5,1.6-.6,2.4-.5,0,0,.2,0,.1.1,0,0,0,.1-.1.2-.2,0-.4.2-.6.3-.1,0-.2.1-.3.2,0,0,0,.2,0,.3,0,0,.2,0,.2,0,.7,0,1.3.1,1.9.4.2,0,.4.3.5.4,0,0,0,.1,0,.2,0,0-.1,0-.2,0-.4,0-.8,0-1.1,0,0,0-.1,0-.2,0-.2,0-.2.2,0,.3.5.3,1,.7,1.5,1,0,0,.1.1.2.2,0,0-.1,0-.2.1-1.1.2-2.2.3-3.3.4-.5,0-1,.1-1.5.3-.2,0-.5,0-.8,0-.5-.1-.9-.3-1.4-.5-.2,0-.3-.2-.4-.3-.1-.4-.3-.9-.3-1.3ZM11,8.3c-.6,0-1.2,0-1.7.4-.2.1-.5.3-.7.4-.2.1-.4.1-.5,0-.2-.1-.2-.3-.2-.5,0-.3.2-.5.3-.8,0-.2.2-.4.3-.7,0-.1,0-.2-.2-.2-.2,0-.4.2-.6.3-.2.1-.3.3-.5.4-.3.3-.6.6-.8,1,0,.2-.2.4-.2.6-.3.8-.3,1.5,0,2.3,0,0,.1.2.2.2.5.2.9.4,1.4.5.2,0,.4.1.7,0,.4-.1.8-.2,1.3-.3.8,0,1.6-.1,2.4-.2.3,0,.5,0,.8-.2,0,0-.1-.1-.2-.1-.4-.3-.7-.5-1.1-.8-.1,0-.3-.2-.2-.4,0-.2.1-.4.4-.4.3,0,.5,0,.8-.1,0,0,.1,0,.2,0,0,0,0,0,0,0,0,0-.2,0-.2-.1-.1,0-.3-.1-.4-.1-.4,0-.8-.1-1.3-.2-.2,0-.4,0-.5-.2-.1-.2-.1-.5,0-.6.1-.1.3-.2.4-.4Z"/>
    <path class="cls-4" d="M11,8.3c-.2.1-.3.2-.4.4-.2.2-.2.4,0,.6.1.2.3.2.5.2.4,0,.8,0,1.3.2.1,0,.3,0,.4.1,0,0,.2,0,.2.1,0,0,0,0,0,0,0,0-.1,0-.2,0-.3,0-.5,0-.8.1-.2,0-.3.2-.4.4,0,.2.1.3.2.4.4.3.7.5,1.1.8,0,0,0,0,.2.1-.3,0-.6.1-.8.2-.8,0-1.6.1-2.4.2-.4,0-.9.2-1.3.3-.2,0-.5,0-.7,0-.5-.2-.9-.3-1.4-.5,0,0-.2-.1-.2-.2-.3-.8-.3-1.5,0-2.3,0-.2.2-.4.2-.6.2-.4.4-.7.8-1,.2-.1.3-.3.5-.4.2-.1.4-.2.6-.3.1,0,.2,0,.2.2,0,.2-.2.4-.3.7,0,.3-.2.5-.3.8,0,.2,0,.4.2.5.2.1.4.1.5,0,.2-.1.5-.3.7-.4.5-.3,1.1-.4,1.7-.4Z"/>
  </g>
  <g>
    <path class="cls-4" d="M5.9,19.3c0-.5,0-1,.3-1.5.1-.4.2-.8.3-1.3.1-.5.3-.6.8-.5.4,0,.6.3,1,.4,0,0,.2.1.2.2.2.8.4,1.6.5,2.4,0,.3,0,.7,0,1,0,.3-.3.5-.6.4-.5-.1-.9,0-1.3.2-.3.2-.7,0-1-.3-.2-.3-.3-.7-.3-1.1ZM6.2,19.2c0,.6,0,.8.2,1,.2.3.4.3.7.2,0,0,.1,0,.2,0,.3-.2.6-.2,1-.1,0,0,.1,0,.2,0,.3,0,.4,0,.4-.3,0-.4,0-.8,0-1.2-.1-.6-.3-1.2-.4-1.9,0-.2-.1-.3-.3-.3-.3,0-.5-.2-.8-.3-.2,0-.4,0-.4.2-.1.5-.2.9-.4,1.4-.2.5-.2,1-.3,1.4Z"/>
    <path class="cls-4" d="M6.2,19.2c0-.4,0-.9.3-1.4.2-.5.2-.9.4-1.4,0-.2.2-.3.4-.2.3.1.5.2.8.3.2,0,.2.2.3.3.1.6.3,1.3.4,1.9,0,.4.2.8,0,1.2,0,.2-.1.3-.4.3,0,0-.1,0-.2,0-.3,0-.7,0-1,.1,0,0-.1,0-.2,0-.3.1-.6,0-.7-.2-.2-.3-.2-.5-.2-1Z"/>
  </g>
  <g>
    <path class="cls-4" d="M28.8,22.4s0,0,0,0c.3,0,.6-.2.9-.2.9,0,1.6-.4,2.3-.9,0,0,0-.2,0-.3,0,0,0,0,0,0,0,0,0,0-.1,0-.2.2-.5.3-.8.5-.3.2-.6.3-1,.3-.3,0-.7.1-1,.2-.4,0-.8.2-1.2.1-.1,0-.3,0-.4,0-.4.1-.7.5-.9.8-.2.3-.2.4.1.6,0,0,.2.1.3.3.5.7.9,1.4,1.1,2.1,0,.1,0,.3.1.4,0,0,0,0,0-.1,0,0,0,0,0,0,0,0,0,0,0-.1-.1-.3-.3-.6-.4-.9-.3-.5-.6-1-.9-1.6,0-.1-.2-.2-.3-.3,0,0-.1-.1,0-.2.2-.3.4-.6.8-.7.3-.1.5,0,.8,0,0,.1,0,.3,0,.4.1.8.3,1.6.4,2.4,0,.2,0,.5.1.7,0,0,0,0,0,0,0,0,0-.1.1-.2,0,0,0-.1,0-.2,0-.1,0-.2,0-.4-.1-.8-.3-1.5-.4-2.3,0-.1,0-.2,0-.3.1,0,.2,0,.4,0,0,0,.1,0,.1,0,.2.2.4.3.5.6.1.2.2.4.3.6,0,0,0,0,0,0,0,0,0-.1,0-.2,0,0,0,0,0,0,0,0,0,0,0,0-.1-.2-.2-.4-.4-.6-.3-.3-.5-.7-1-.8Z"/>
    <path class="cls-4" d="M31.2,22.2s0,0,0,0v-.2c.2,0,.2,0,.2,0,0,0,0,0,0,0,0,0,0,0,0,0,0,0,0,0,.1,0,0,0,0-.1.1-.2,0,0,0,0,0,0,0,0,0,0,0-.1h0c0,0,.1,0,.2-.1,0,0,0,0,0,0-.7.5-1.4.9-2.3.9-.3,0-.6.1-.9.2,0,0,0,0,0,0,.5.1.7.5,1,.8.1.2.3.4.4.6,0,0,0,0,0,0,0-.1.1-.2.2-.3,0,0,0,0,0,0,0,0,0,0,0,0,0,0,.1-.2.2-.2,0,0,0,0,0-.1,0,0,0,0,0,0,0,0,0,0,0,0,0,0,0,0,0,0,0,0,.1-.2.2-.2,0,0,0,0,0,0,0,0,0,0,0,0,0,0,0,0,0,0,0-.2.2-.3.3-.5Z"/>
    <path class="cls-4" d="M28.8,25.9c0-.2,0-.5-.1-.7-.1-.8-.3-1.6-.4-2.4,0-.1,0-.3,0-.4-.2,0-.5,0-.8,0-.3.2-.6.4-.8.7,0,0,0,.1,0,.2.1,0,.2.2.3.3.3.5.6,1,.9,1.6.1.3.3.6.4.9,0,0,.2-.2.3-.2Z"/>
  </g>
  <g>
    <path class="cls-4" d="M2.7,10.6c.3,0,.7,0,1,.3.6.4,1.2.7,1.8,1.2.5.3.7.8.6,1.4,0,.4,0,.7.1,1.1.3.8.3.8-.4,1.3-.7.5-1.4,1-2.3,1.3,0,0-.2,0-.3,0,0,0,0-.2,0-.3.7-.8,1.2-1.7,1.6-2.7,0-.1,0-.2.1-.4,0,0,0-.2,0-.2-.7-1-1.7-1.8-2.7-2.5-.1,0-.3-.1-.2-.3,0,0,.2-.1.3-.1,0,0,0,0,.2,0ZM3.8,16.8c0,0,0,0,0,0,0,0,.1,0,.2,0,.6-.3,1.3-.7,1.8-1.2.2-.2.2-.3.2-.6-.2-.6-.3-1.1-.2-1.7,0-.3,0-.5-.3-.7-.3-.4-.7-.6-1.1-.9-.4-.2-.8-.4-1.2-.6-.1,0-.3,0-.5-.1,0,0,0,0,0,0,0,0,.1,0,.2.1.9.7,1.8,1.4,2.5,2.4,0,0,0,.2,0,.3,0,.2,0,.3-.1.4-.4.8-.8,1.6-1.3,2.3,0,0-.1.2-.2.3Z"/>
    <path class="cls-4" d="M3.8,16.8c0-.1.1-.2.2-.3.5-.7.9-1.5,1.3-2.3,0-.1.1-.3.1-.4,0,0,0-.2,0-.3-.7-.9-1.5-1.7-2.5-2.4,0,0-.1,0-.2-.1,0,0,0,0,0,0,.2,0,.3,0,.5.1.4.2.8.4,1.2.6.4.2.8.5,1.1.9.2.2.3.4.3.7,0,.6,0,1.2.2,1.7,0,.2,0,.4-.2.6-.6.5-1.2.8-1.8,1.2,0,0-.1,0-.2,0,0,0,0,0,0,0Z"/>
  </g>
  <g>
    <path class="cls-4" d="M19.5,30.6c0,.3,0,.6.1.8,0,0,0,.2,0,.3,0,0,0,0,.1,0s0,0,.1,0c0,0,0,0,0,0,0,0,0-.1,0-.2-.1-.3-.1-.6-.1-.9,0-.6-.4-.9-.9-1-.2,0-.4,0-.5.2-.2.3-.3.7-.4,1.1-.1.5-.1,1.1-.2,1.6,0,.2,0,.4,0,.5,0,0,0,0,0,0,0,0,.1,0,.2,0,0,0,0,0,0,0,0-.1,0-.3,0-.4,0-.4.1-.9.2-1.3,0-.1,0-.2.1-.3,0,0,0-.2,0-.2,0-.2,0-.5.2-.7,0-.1.2-.2.4-.1.4,0,.7.3.7.8Z"/>
    <path class="cls-4" d="M18.2,32.5c0-.1.1-.3.2-.4.1-.1.2-.2.4-.2.1,0,.3-.1.5-.1h0s0,0,0,0c0,0,.2,0,.3-.1,0,0,0-.2,0-.3,0-.3,0-.6-.1-.8,0-.5-.3-.7-.7-.8-.1,0-.3,0-.4.1-.1.2-.2.4-.2.7,0,0,0,.2,0,.2,0,.1-.1.2-.1.3,0,.4-.1.9-.2,1.3,0,.2,0,.3,0,.4,0,0,0,0,0,0,0,0,.1,0,.2,0,0-.1,0-.3,0-.4Z"/>
  </g>
</svg>