<?xml version="1.0" encoding="UTF-8"?>
<svg id="Camada_1" data-name="Camada 1" xmlns="http://www.w3.org/2000/svg" version="1.1" viewBox="0 0 853.1 565">
  <defs>
    <style>
      .cls-1 {
        fill: #3f3d56;
      }

      .cls-1, .cls-2, .cls-3, .cls-4 {
        stroke-width: 0px;
      }

      .cls-2 {
        fill: #f2f2f2;
      }

      .cls-3 {
        fill: red;
      }

      .cls-4 {
        fill: #fff;
      }
    </style>
  </defs>
  <path class="cls-2" d="M819.8,378.1c-6.2,6.7-13.8,11.7-22.1,15.6h0c-.8.4-1.6.7-2.4,1.1h0s0,0,0,0h0s0,0,0,0h0s0,0,0,0h0s0,0,0,0h0s0,0,0,0h0c-5.5,2.4-11.2,4.4-17.1,6.1-34.2,9.7-70.1,11.6-105.1,5.5-.7-.1-1.3-.2-2-.4v-81.1c.7-.3,1.3-.6,2-.8,4.4-1.8,8.8-3.5,13.3-5,6.4-2.2,13-4.1,19.6-5.7,21.6-5.2,43.9-7,66-5.3,4,.3,8.1.7,12.1,1.3,8.4,1.2,17.2,3.2,24.9,6.8h0c1.1.5,2.2,1.1,3.3,1.7,6.9,3.7,12.7,8.9,16.2,15.9,1.3,2.5,2.2,5.2,2.7,8h0c.2,1,.3,1.9.4,2.9,1.3,11.8-3.6,24.5-11.9,33.5Z"/>
  <path class="cls-4" d="M831.6,344.6c0,0-.2,0-.3,0-17.1.8-34.2,1.9-51.3,3.3h0c0,0-.1,0-.2,0-17.5,1.5-35,3.4-52.5,5.7-.7,0-1.5.2-2.2.3-12.1,1.6-24.1,3.4-36.2,5.4-5.3.9-10.6,1.8-15.9,2.7-.7.1-1.3.2-2,.4v-3c.7-.1,1.3-.2,2-.4,17.6-3.1,35.3-5.8,53-8.2,4.5-.6,8.9-1.2,13.4-1.7,12.9-1.6,25.9-2.9,38.8-4,1,0,1.9-.2,2.8-.2,16.6-1.4,33.2-2.5,49.8-3.2,0,0,.2,0,.2,0,1.6.1,1.9,2.5.4,2.9Z"/>
  <path class="cls-4" d="M796.1,391.9c-21.3.2-42.4-8.9-57.5-23.9-4.3-4.2-8-9-11.2-14.1-1-1.6-3.4.2-2.4,1.8,11.7,18.8,31.2,32.2,52.8,37.1,6.1,1.4,12.4,2.1,18.6,2,1.9,0,1.5-3-.4-3h0Z"/>
  <path class="cls-4" d="M705.9,313.5c-.2.6-.7,1-1.2,1.1-4.9,1.3-9.6,3.1-14.1,5.5-6.5,3.4-12.4,7.9-17.5,13.2-.3.3-.5.5-.8.8-.4.4-.8.9-1.2,1.4v-4.4c.6-.7,1.3-1.4,2-2,4-3.8,8.5-7.2,13.3-10,6.4-2.2,13-4.1,19.6-5.7Z"/>
  <path class="cls-4" d="M810.7,315.4c-13.6,5.8-24.9,15.8-32.4,28.6-.3.8,0,1.6.8,2,.8.3,1.6,0,2-.8,7.1-12,17.9-21.5,30.8-27,1.8-.8.6-3.5-1.1-2.8h0Z"/>
  <path class="cls-2" d="M851.6,230.4c-2.3,8.8-6.8,16.8-12.3,24.1h0c-.5.7-1,1.4-1.6,2h0c-3.8,4.7-8,9.2-12.4,13.4-15.9,15.2-33.9,28-53.4,38.1-30.7,16-64.9,25.5-98.9,26-.3,0-.5,0-.8,0-.4,0-.8,0-1.2,0v-45.5c.6-1.2,1.3-2.5,2-3.7,8.8-15.9,19.6-30.6,32-43.8.3-.3.6-.7.9-1,4.7-4.9,9.6-9.6,14.7-14.1,19.7-17.4,42.6-30.9,67.3-39.9,8-2.9,16.7-5.1,25.2-5.6,1.2,0,2.5-.1,3.7,0,7.8.1,15.3,2,21.8,6.5,2.3,1.6,4.4,3.6,6.1,5.8.6.8,1.2,1.6,1.7,2.4h0c6.6,9.9,8.2,23.4,5.1,35.2Z"/>
  <path class="cls-4" d="M846.5,195.3h0c0,0-.2.1-.2.2-14.8,8.6-29.4,17.5-43.8,26.8,0,0,0,0,0,0,0,0-.1,0-.2.1-14.8,9.5-29.5,19.3-43.9,29.5-.6.4-1.2.9-1.8,1.3-10,7-19.8,14.2-29.5,21.5-18.4,13.9-36.4,28.2-54,43.1-.7.6-1.3,1.1-2,1.7v-3.9c.7-.6,1.3-1.1,2-1.7,6.7-5.7,13.5-11.3,20.4-16.8,2.1-1.6,4.1-3.3,6.2-4.9,18.3-14.6,37-28.6,56.1-42.1h0c3.8-2.6,7.5-5.3,11.3-7.9,10.7-7.4,21.6-14.6,32.5-21.6.8-.5,1.6-1,2.4-1.5,14-9,28.2-17.6,42.6-26,0,0,.1,0,.2-.1,1.5-.6,2.9,1.4,1.7,2.4Z"/>
  <path class="cls-4" d="M837,253.6c-18.8,10.1-41.6,11.8-62,5.6-5.7-1.8-11.3-4.2-16.4-7.3-1.7-1-2.9,1.7-1.3,2.7,19.1,11.2,42.6,14,64,8.4,6.1-1.6,11.9-3.9,17.4-6.9,1.7-.9,0-3.3-1.7-2.4h0Z"/>
  <path class="cls-4" d="M696.1,290.2c-.9-5.2-1.3-10.6-1-15.9.7-12.1,4.4-23.9,10.8-34.2,4.7-4.9,9.6-9.6,14.7-14.1,0,.6-.1,1.2-.6,1.6-3.7,3.4-7.1,7.2-9.9,11.4-10.2,14.9-14.2,33.1-11.1,50.9.1.4,0,.8-.3,1.1-.7.6-1.7.5-2.3-.2-.2-.2-.3-.5-.4-.7Z"/>
  <path class="cls-4" d="M814.4,179.1c-9.3,11.5-14.7,25.6-15.4,40.4,0,.8.8,1.4,1.6,1.4.8,0,1.4-.8,1.4-1.6.7-14,5.9-27.4,14.7-38.2,1.2-1.5-1.1-3.4-2.3-1.9h0Z"/>
  <path class="cls-2" d="M710.8,212h0c0,.9-.1,1.7-.2,2.6h0c-.7,6.1-1.8,12.1-3.2,18-.7,2.9-1.5,5.8-2.3,8.7-.1.4-.2.7-.3,1.1h0c-2.4,8.4-5.4,16.6-8.7,24.7-6.2,14.8-13.9,29-23,42.2-.6,1-1.3,1.9-2,2.9v-156.6c.7,0,1.3,0,2,0,.3,0,.6,0,1,0,2.8.1,5.6.7,8.3,1.6.9.3,1.8.7,2.8,1,10.9,4.8,19.5,15.3,23.2,26.9,2.8,8.7,3.4,17.8,2.6,26.9Z"/>
  <path class="cls-4" d="M685,158.1c0,0,0,.2-.1.3-4,7.9-8,15.8-11.9,23.7-.7,1.4-1.3,2.8-2,4.1v-6.8c.7-1.4,1.3-2.7,2-4.1,3-6.1,6-12.1,9.1-18.1,0,0,0-.1.1-.2.9-1.3,3.2-.4,2.8,1Z"/>
  <path class="cls-4" d="M711.1,213.6c-.2.3-.4.6-.6,1-2.9,5.1-6.4,9.9-10.4,14.2-7.7,8.3-16.9,15-27.1,19.8-.7.3-1.3.6-2,.9v-3.2c.7-.3,1.3-.6,2-.9,14.9-7.1,27.2-18.5,35.4-32.8.5-.8,1.5-1.1,2.2-.6,0,0,.1,0,.2.1.5.4.7,1.1.3,1.6h0Z"/>
  <path class="cls-3" d="M673,33v76h-2v-.8H2v.8H0V33C0,14.8,14.8,0,33,0h607c18.2,0,33,14.8,33,33Z"/>
  <path class="cls-1" d="M640,0H33C14.8,0,0,14.8,0,33v434c0,18.2,14.8,33,33,33h607c18.2,0,33-14.8,33-33V33c0-18.2-14.8-33-33-33ZM671,467c0,17.1-13.9,31-31,31H33c-17.1,0-31-13.9-31-31V33c0-17.1,13.9-31,31-31h607c17.1,0,31,13.9,31,31v434Z"/>
  <circle class="cls-4" cx="136" cy="54.5" r="20"/>
  <circle class="cls-4" cx="537" cy="54.5" r="20"/>
  <path class="cls-3" d="M193.8,277.5h-119c-10.5,0-19-8.5-19-19v-56.2c0-10.5,8.5-19,19-19h119c10.5,0,19,8.5,19,19v56.2c0,10.5-8.5,19-19,19Z"/>
  <path class="cls-3" d="M396.2,277.5h-119c-10.5,0-19-8.5-19-19v-56.2c0-10.5,8.5-19,19-19h119c10.5,0,19,8.5,19,19v56.2c0,10.5-8.5,19-19,19Z"/>
  <path class="cls-2" d="M396.2,422.8h-119c-10.8,0-19.6-8.8-19.6-19.6v-56.2c0-10.8,8.8-19.6,19.6-19.6h119c10.8,0,19.6,8.8,19.6,19.6v56.2c0,10.8-8.8,19.6-19.6,19.6Z"/>
  <path class="cls-2" d="M193.4,422.8h-119c-10.8,0-19.6-8.8-19.6-19.6v-56.2c0-10.8,8.8-19.6,19.6-19.6h119c10.8,0,19.6,8.8,19.6,19.6v56.2c0,10.8-8.8,19.6-19.6,19.6Z"/>
  <path class="cls-2" d="M598.6,422.8h-119c-10.8,0-19.6-8.8-19.6-19.6v-56.2c0-10.8,8.8-19.6,19.6-19.6h119c10.8,0,19.6,8.8,19.6,19.6v56.2c0,10.8-8.8,19.6-19.6,19.6Z"/>
  <path class="cls-2" d="M598.6,277.6h-119c-10.8,0-19.6-8.8-19.6-19.6v-56.2c0-10.8,8.8-19.6,19.6-19.6h119c10.8,0,19.6,8.8,19.6,19.6v56.2c0,10.8-8.8,19.6-19.6,19.6Z"/>
  <circle class="cls-4" cx="134.3" cy="230.4" r="32.3"/>
  <path class="cls-3" d="M131.1,242.7c-.7,0-1.4-.2-2-.7h0s-7.6-5.8-7.6-5.8c-1.5-1.1-1.8-3.2-.6-4.7s3.2-1.8,4.7-.6h0l4.9,3.8,11.6-15.1c1.1-1.5,3.2-1.8,4.7-.6,0,0,0,0,0,0h0c0,0,0,0,0,0,1.5,1.1,1.8,3.2.6,4.7l-13.7,17.8c-.6.8-1.6,1.3-2.7,1.3Z"/>
  <circle class="cls-4" cx="337.3" cy="229.9" r="32.3"/>
  <path class="cls-3" d="M334.1,242.2c-.7,0-1.4-.2-2-.7h0s-7.6-5.8-7.6-5.8c-1.5-1.1-1.8-3.2-.6-4.7s3.2-1.8,4.7-.6h0l4.9,3.8,11.6-15.1c1.1-1.5,3.2-1.8,4.7-.6,0,0,0,0,0,0h0c0,0,0,0,0,0,1.5,1.1,1.8,3.2.6,4.7l-13.7,17.8c-.6.8-1.6,1.3-2.7,1.3Z"/>
</svg>